<?xml version="1.0" encoding="UTF-8" standalone="no"?><!DOCTYPE svg PUBLIC "-//W3C//DTD SVG 1.1//EN" "http://www.w3.org/Graphics/SVG/1.1/DTD/svg11.dtd"><svg width="100%" height="100%" viewBox="0 0 2623 563" version="1.1" xmlns="http://www.w3.org/2000/svg" xmlns:xlink="http://www.w3.org/1999/xlink" xml:space="preserve" xmlns:serif="http://www.serif.com/" style="fill-rule:evenodd;clip-rule:evenodd;stroke-linecap:round;stroke-linejoin:round;stroke-miterlimit:1.5;"><path d="M20.331,248.231c19.006,-81.91 146.511,-332.664 341.283,-137.891c-0,-0 182.982,-208.778 356.933,2.37c-0,-0 267.028,-172.15 379.065,61.405c0,-0 266.872,-115.159 266.872,165.088c0,280.247 -415.011,180.569 -620.772,105.159c0,-0 -186.37,203.606 -402.903,29.086c-0,0 -235.039,91.618 -285.479,-47.4c-44.169,-121.733 -37.935,-165.164 -34.999,-177.817Z" style="fill:#b0b2b4;stroke:#231f20;stroke-width:36.5px;"/><path d="M1391.13,454.691c-0,0 266.444,204.658 612.821,-5.2c-0,0 188.414,158.084 325.442,49.603c0,0 330.967,4.753 266.444,-224.998c-41.86,-149.051 -221.312,-228.471 -363.506,-131.525c0,0 -213.155,-230.476 -466.276,-30.547c-0,0 -222.672,-169.286 -401.57,43.869c0,0 110.257,153.198 26.645,298.798Z" style="fill:#b0b2b4;stroke:#231f20;stroke-width:36.5px;"/></svg>